<?xml version="1.0" encoding="UTF-8"?>
<svg width="300px" height="200px" viewBox="0 0 300 200" version="1.1" xmlns="http://www.w3.org/2000/svg" xmlns:xlink="http://www.w3.org/1999/xlink">
    <!-- Generator: Sketch 51.3 (57544) - http://www.bohemiancoding.com/sketch -->
    <title>three-wisemen-bringing-gifts</title>
    <desc>Created with Sketch.</desc>
    <defs></defs>
    <g id="three-wisemen-bringing-gifts" stroke="none" stroke-width="1" fill="none" fill-rule="evenodd">
        <g id="3Wiseman" transform="translate(0.000000, 15.000000)" fill-rule="nonzero">
            <path d="M276.034483,71.9086957 L294.344828,71.9086957 C294.344828,71.9086957 290.425287,81.2965839 274.252874,78.171118" id="Shape" fill="#F2DDD7"></path>
            <path d="M257.206897,110.425466 C258.954023,112.51677 261.390805,124.719876 260.517241,146.965839 C259.643678,169.211801 267.83908,183.804969 267.83908,183.804969 L217.804598,183.804969 L221.471264,140.140373 L257.206897,110.425466 Z" id="Shape" fill="#CEA045"></path>
            <path d="M88.816092,75.9763975 C88.816092,75.9763975 106.344828,73.6782609 107.045977,63.6583851 C100.9119,63.8352438 94.7727465,63.6818126 88.6551724,63.1987578" id="Shape" fill="#F2DDD7"></path>
            <path d="M155.827586,39.5279503 L159.275862,30.8180124 L157.54023,22.0850932 L148.241379,20.4878882 C147.137737,27.6689664 150.031508,34.8813334 155.793103,39.3096273" id="Shape" fill="#F2DDD7"></path>
            <polygon id="Shape" fill="#FB5956" points="134.344828 17.4658385 160.494253 22.3493789 161.068966 15.0298137 135.563218 10.6059006"></polygon>
            <path d="M148.183908,20.4763975 C147.080266,27.6574758 149.974037,34.8698427 155.735632,39.2981366 L155.735632,53.0869565 L137.482759,38.4018634 C137.482759,38.4018634 129.229885,30.2549689 136.896552,18.4080745 L148.183908,20.4763975 Z" id="Shape" fill="#C93E4F"></path>
            <path d="M121.229885,140.036957 L133.551724,153.515528 C133.551724,153.515528 164.068966,126.788199 165.804598,103.783851 C168.597701,109.82795 169.586207,118.422981 169.344828,137.945652 C169.103448,157.468323 176.091954,183.49472 176.091954,183.49472 L116.114943,183.49472 C116.114943,183.49472 119.137931,170.717081 119.137931,161.179814 C119.309051,154.090038 120.008304,147.02286 121.229885,140.036957 Z" id="Shape" fill="#C93E4F"></path>
            <path d="M113.666667,131.212112 L133.206897,153.527019 C133.206897,153.527019 162.965517,129.821739 164.701149,106.817391 C166.37931,84.6173913 175.298851,77.2403727 178.183908,75.0916149 L182.022989,69.2773292 L190.505747,72.184472 L191.37931,71.2996894 C194.284231,68.3330657 194.453538,63.6437294 191.770115,60.4754658 L190.850575,59.4068323 C190.850575,59.4068323 181.206897,61.8428571 174.344828,61.7049689 C167.482759,61.5670807 156.793103,57.5223602 149.931034,45.6180124 C143.068966,33.7136646 128.54023,38.8729814 125.793103,45.6180124 C123.045977,52.3630435 113.701149,131.143168 113.701149,131.143168" id="Shape" fill="#FB5956"></path>
            <path d="M50.9885057,22.2804348 C50.9885057,22.2804348 53.0344828,36.9195652 62.183908,40.1484472 C62.8859641,45.4163115 63.9147663,50.635477 65.2643678,55.7757764 L56.1724138,76.0798137 C41.9885057,59.5791925 41.2988506,35.6440994 41.2988506,35.6440994 L43.1609195,24.9118012 L50.9885057,22.2804348 Z" id="Shape" fill="#2D9693"></path>
            <path d="M50.9885057,22.165528 C50.9885057,22.165528 53.0344828,36.8046584 62.183908,40.0335404 L62.9310345,35.586646 C63.8315825,30.2415196 63.1648975,24.7500606 61.0114943,19.7754658 L60.5747126,18.7757764" id="Shape" fill="#F2DDD7"></path>
            <path d="M21.8735632,183.804969 L77.2068966,183.804969 C77.2068966,183.804969 70.9310345,163.121739 70,148.252795 C69.0689655,133.383851 56.7471264,75.9763975 56.7471264,75.9763975 C56.7471264,75.9763975 66.9770115,91.5462733 67.908046,101.543168 C68.8390805,111.540062 82.7816092,119.204348 82.7816092,119.204348 C82.7816092,119.204348 81.6321839,95.073913 86.0344828,84.8127329 C90.4367816,74.5515528 89.2873563,63.1987578 89.2873563,63.1987578 C89.2873563,63.1987578 70.4597701,64.3478261 61.1609195,50.421118 C51.862069,36.4944099 46.9770115,35.5521739 41.862069,35.5521739 C41.862069,35.5521739 28.3793103,42.0559006 26.7471264,69.2543478 C25.1149425,96.452795 27.4482759,109.919876 25.1149425,125.731056 C22.7816092,141.542236 21.862069,176.623292 21.862069,183.82795" id="Shape" fill="#56B2AD"></path>
            <path d="M66.183908,101.669565 C66.5047606,104.379377 67.5050423,106.964283 69.091954,109.184472 C71.2958271,112.277537 73.9857511,114.993788 77.0574713,117.22795 C78.5235896,118.339832 80.059286,119.356915 81.6551724,120.272981 C82.019064,120.472528 82.4623026,120.460463 82.8147926,120.241416 C83.1672827,120.022368 83.37427,119.630365 83.3563218,119.215839 C83.3563218,119.215839 83.3563218,119.043478 83.3563218,118.710248 C83.3563218,117.72205 83.2413793,115.331988 83.2413793,112.206522 C83.2413793,109.908385 83.2413793,107.185093 83.4137931,104.335404 C83.4322724,103.924881 83.2302687,103.535687 82.8838749,103.314427 C82.5374811,103.093168 82.0993226,103.073457 81.7344496,103.262719 C81.3695765,103.451982 81.1334218,103.821465 81.1149425,104.231988 C80.9770115,107.12764 80.9425287,109.873913 80.9425287,112.206522 C80.9425287,116.412112 81.0804598,119.307764 81.0804598,119.319255 L82.2298851,119.319255 L82.7816092,118.308075 C80.2167075,116.816422 77.8097548,115.068555 75.5977011,113.091304 C73.8232948,111.531951 72.2516308,109.756175 70.9195402,107.80559 C69.6171439,105.950934 68.7920478,103.803983 68.5172414,101.554658 C68.4782296,101.144136 68.223102,100.785603 67.8479627,100.614117 C67.4728234,100.44263 67.034665,100.484242 66.6985375,100.723278 C66.3624099,100.962314 66.179379,101.362459 66.2183908,101.772981 L66.183908,101.669565 Z" id="Shape" fill="#662059"></path>
            <path d="M70.5747126,148.17236 C70.3333333,144.357453 69.4252874,137.980124 68.091954,130.476708 C64.2298851,108.023913 57.2988506,75.7350932 57.2988506,75.7236025 L56.1494253,75.9649068 L55.183908,76.5968944 L55.2528736,76.7118012 C55.9770115,77.8608696 62.0344828,87.3291925 64.8045977,95.7518634 C65.0045629,96.3547456 65.6555511,96.6814247 66.2586207,96.4815216 C66.8616902,96.2816186 67.1884708,95.6308326 66.9885057,95.0279503 C63.862069,85.6170807 57.1264368,75.378882 57.1034483,75.3444099 C56.7974348,74.887478 56.2104878,74.711326 55.7033267,74.9242115 C55.1961655,75.137097 54.91096,75.679343 55.0229885,76.2177019 L55.5517241,78.7111801 C56.7011494,84.3071429 59.7126437,98.486646 62.4482759,112.895963 C63.8390805,120.100621 65.183908,127.362733 66.2183908,133.579193 C67.2528736,139.795652 68,145.069876 68.2068966,148.287267 C68.2449852,148.92188 68.7904773,149.405468 69.4252874,149.367391 C70.0600974,149.329315 70.5438357,148.783992 70.5057471,148.149379 L70.5747126,148.17236 Z" id="Shape" fill="#662059"></path>
            <path d="M20.1954023,179.806211 C20.1954023,181.541304 20.1954023,182.908696 20.1954023,183.839441 C20.1954023,184.474054 20.7100175,184.988509 21.3448276,184.988509 L76.6321839,184.988509 C77.0047022,185.004634 77.3618993,184.839114 77.590343,184.544513 C77.8187866,184.249912 77.8900897,183.862838 77.7816092,183.506211 L77.5977011,182.897205 C75.0665445,174.257891 73.0552804,165.474773 71.5747126,156.595031 C71.5110619,156.184508 71.233167,155.839117 70.8457082,155.688961 C70.4582493,155.538806 70.0200908,155.6067 69.6962827,155.867067 C69.3724747,156.127434 69.2122112,156.54072 69.2758621,156.951242 C70.8135499,166.132571 72.9093869,175.21171 75.5517241,184.138199 L76.7011494,183.804969 L76.7011494,182.655901 L21.2988506,182.655901 L21.2988506,183.804969 L22.4482759,183.804969 C22.4482759,182.897205 22.4482759,181.506832 22.4482759,179.817702 C22.4482759,179.183089 21.9336606,178.668634 21.2988506,178.668634 C20.6640405,178.668634 20.1494253,179.183089 20.1494253,179.817702 L20.1954023,179.806211 Z" id="Shape" fill="#662059"></path>
            <path d="M23.4137931,125.535714 C22.7931034,129.741304 22.2643678,135.256832 21.8505747,141.243478 C21.0689655,152.136646 20.5862069,164.592547 20.3448276,173.417391 C20.3257833,174.052004 20.8249601,174.581893 21.4597701,174.600932 C22.0945802,174.61997 22.6246339,174.120948 22.6436782,173.486335 C22.8850575,164.661491 23.3678161,152.228571 24.1494253,141.381366 C24.5747126,135.429193 25.091954,129.948137 25.6896552,125.845963 C25.7817026,125.21135 25.3417066,124.622298 24.7068966,124.53028 C24.0720865,124.438261 23.4828521,124.87812 23.3908046,125.512733 L23.4137931,125.535714 Z" id="Shape" fill="#662059"></path>
            <path d="M84.0344828,96.1770186 C84.3662088,92.4393486 85.2013422,88.7635837 86.5172414,85.2493789 C88.8728138,79.3614909 90.0445648,73.0672379 89.9655172,66.7263975 C89.9655172,64.4282609 89.8275862,63.0953416 89.816092,63.0608696 C89.7553995,62.4440839 89.2163533,61.9865452 88.5977011,62.0267081 L87.6551724,62.0267081 C83.6754572,62.0023802 79.7224536,61.3747452 75.9310345,60.1652174 C70.089118,58.4261281 65.0162124,54.7452586 61.5517241,49.731677 C56.8505747,42.6993789 53.2413793,38.8614907 50.0574713,36.747205 C48.6576198,35.8098152 47.1001216,35.1325139 45.4597701,34.7478261 C44.1040226,34.4585748 42.7192946,34.3274713 41.3333333,34.3571429 C41.1620767,34.3581575 40.9932111,34.3974163 40.8390805,34.4720497 C40.7011494,34.5409938 37.1609195,36.2875776 33.4597701,41.4928571 C29.7586207,46.6981366 25.908046,55.3621118 25.0804598,69.139441 C24.5747126,77.6310559 24.4482759,84.8012422 24.4482759,91.1096273 C24.4482759,97.107764 24.5632184,102.324534 24.5632184,107.196584 C24.5632184,108.023913 24.5632184,108.843582 24.5632184,109.65559 C24.5632184,112.574224 24.4482759,115.400932 24.2643678,118.170186 C24.2199311,118.804799 24.6985233,119.355267 25.3333333,119.399689 C25.9681434,119.444112 26.5187817,118.965669 26.5632184,118.331056 C26.7586207,115.481366 26.8390805,112.585714 26.8735632,109.690062 C26.8735632,108.870393 26.8735632,108.043064 26.8735632,107.208075 C26.8735632,102.324534 26.7586207,97.107764 26.7586207,91.121118 C26.7586207,84.847205 26.8850575,77.734472 27.3908046,69.2888199 C28.1954023,55.8791925 31.908046,47.6863354 35.3448276,42.8602484 C36.6415019,40.9985056 38.1886205,39.3242697 39.9425287,37.8847826 C40.4003229,37.5116296 40.8801132,37.1662879 41.3793103,36.8506211 L41.7586207,36.6322981 L41.8505747,36.6322981 L41.7356322,36.4024845 L41.8505747,36.6322981 L41.7356322,36.4024845 L41.8505747,36.6322981 L41.3563218,35.5981366 L41.3563218,36.747205 C42.5682138,36.7188312 43.779323,36.8306505 44.9655172,37.0804348 C47.2567894,37.6836306 49.3520296,38.8714885 51.045977,40.5276398 C54.3578957,43.6891834 57.2616204,47.2520896 59.6896552,51.1335404 C63.439799,56.5748053 68.9335815,60.5753067 75.2643678,62.4748447 C79.2794856,63.7257998 83.4610717,64.3611725 87.6666667,64.3593168 C88.3793103,64.3593168 88.816092,64.3593168 88.816092,64.3593168 L88.7471264,63.2102484 L87.5977011,63.3251553 C87.5977011,63.589441 87.7241379,64.8304348 87.7241379,66.7034161 C87.7913409,72.7346615 86.6704206,78.7201569 84.4252874,84.3186335 C83.006506,88.0467174 82.1054049,91.9515651 81.7471264,95.9242236 C81.6978484,96.3347462 81.8713929,96.740366 82.2023873,96.9882901 C82.5333817,97.2362141 82.9715402,97.2887768 83.3518126,97.1261783 C83.732085,96.9635797 83.996699,96.6105226 84.045977,96.2" id="Shape" fill="#662059"></path>
            <path d="M39.2068966,26.2447205 L65.7126437,15.5583851 C65.7126437,15.5583851 61.9885057,0.919254658 52.4597701,1.14906832 C42.9310345,1.37888199 37.3448276,7.1931677 36.3678161,13.6968944 C35.3908046,20.2006211 39.2068966,26.2447205 39.2068966,26.2447205 Z" id="Shape" fill="#56B2AD"></path>
            <path d="M44.7356322,50.0993789 C43.8789755,46.6505541 43.2454795,43.1501363 42.8390805,39.6198758 C42.6896552,38.3099379 42.5977011,37.3217391 42.5517241,36.5518634 C42.5517241,36.1956522 42.5517241,35.9198758 42.5517241,35.7360248 L42.5517241,35.4717391 L41.4022989,35.4717391 L42.5517241,35.6670807 L44.4137931,24.9347826 C44.5217108,24.3001697 44.0945802,23.6982569 43.4597701,23.5903727 C42.8249601,23.4824885 42.2228602,23.9094865 42.1149425,24.5440994 L40.2528736,35.2763975 L40.2528736,35.5062112 C40.5377434,40.6045576 41.3270366,45.6621635 42.6091954,50.6049689 C42.7098046,51.0031759 43.0152783,51.3174766 43.4105474,51.429477 C43.8058165,51.5414774 44.2308302,51.4341619 44.52549,51.1479552 C44.8201498,50.8617486 44.9396898,50.4401324 44.8390805,50.0419255 L44.7356322,50.0993789 Z" id="Shape" fill="#662059"></path>
            <path d="M57.045977,75.2409938 C52.4249842,69.6819816 48.8886763,63.305352 46.6206897,56.442236 C46.4985713,56.0397458 46.1662407,55.7361157 45.7542886,55.6506586 C45.3423366,55.5652015 44.9165975,55.7115742 44.6443673,56.0322591 C44.3721371,56.3529439 44.2969211,56.7966919 44.4482759,57.1891304 C46.8140634,64.322754 50.4985779,70.9489228 55.3103448,76.7232919 C55.5772674,77.0352891 55.9904142,77.1812291 56.3941569,77.1061377 C56.7978996,77.0310464 57.1309,76.7463318 57.2677201,76.3592433 C57.4045402,75.9721548 57.3243938,75.5415003 57.0574713,75.2295031 L57.045977,75.2409938 Z" id="Shape" fill="#662059"></path>
            <path d="M61.0344828,4.06770186 C60.0032749,2.90447765 58.7782616,1.92865904 57.4137931,1.18354037 C55.9574501,0.418278057 54.3348929,0.0236178935 52.6896552,0.0344720497 L52.4367816,0.0344720497 C48.0833282,0.00838050934 43.8552004,1.49040488 40.4712644,4.22857143 C37.6555264,6.60144775 35.8105592,9.92626486 35.2873563,13.5704969 C35.1795438,14.3317873 35.1257696,15.0997519 35.1264368,15.8686335 C35.23414,19.7396618 36.3046807,23.5229072 38.2413793,26.8767081 C38.5367617,27.3549772 39.1348868,27.549429 39.6551724,27.3363354 L66.1609195,16.65 C66.690093,16.432965 66.9791204,15.8599868 66.8390805,15.3055901 C66.2642894,13.2713221 65.4944367,11.297263 64.5402299,9.41086957 C64.2467383,8.86375177 63.5716034,8.64861522 63.0155297,8.92501296 C62.4594559,9.20141069 62.2235457,9.86938428 62.4827586,10.4335404 C63.0974492,11.6731646 63.6311346,12.9513087 64.0804598,14.2599379 C64.2528736,14.765528 64.3793103,15.1677019 64.4597701,15.4090062 L64.5517241,15.7307453 L64.5517241,15.8111801 L65.7011494,15.523913 L65.2758621,14.4552795 L38.7701149,25.1416149 L39.1954023,26.2102484 L40.1724138,25.6127329 C38.4647373,22.6196647 37.5138353,19.2550693 37.4022989,15.8111801 C37.4015158,15.1499508 37.4476083,14.4894973 37.5402299,13.8347826 C37.9851547,10.7447954 39.5522036,7.9266195 41.9425287,5.91770186 C44.9251345,3.52285077 48.6459216,2.23559835 52.4712644,2.27515528 L52.6666667,2.27515528 C53.9424142,2.27418547 55.1984197,2.59006358 56.3218391,3.19440994 C57.4529683,3.81587344 58.467952,4.6283857 59.3218391,5.59596273 C59.5990279,5.89974944 60.0172796,6.03262738 60.4190427,5.94454272 C60.8208058,5.85645806 61.1450431,5.56079296 61.2696174,5.1689216 C61.3941917,4.77705024 61.3001773,4.3485072 61.0229885,4.0447205 L61.0344828,4.06770186 Z" id="Shape" fill="#662059"></path>
            <path d="M59.5287356,19.2354037 L59.9655172,20.2350932 C62.0308597,25.0073669 62.669612,30.2754369 61.8045977,35.402795 L61.0574713,39.8496894 C60.989714,40.260212 61.1461829,40.6756874 61.4679377,40.9396099 C61.7896925,41.2035325 62.2278509,41.2758062 62.617363,41.1292062 C63.0068751,40.9826062 63.2885646,40.6394046 63.3563218,40.228882 L64.1034483,35.7819876 C65.0424782,30.2201835 64.3518801,24.5055636 62.1149425,19.3273292 L61.6781609,18.3276398 C61.5159542,17.9499589 61.164516,17.6874769 60.7562298,17.6390681 C60.3479437,17.5906592 59.9448379,17.7636781 59.6987585,18.0929501 C59.4526792,18.4222221 59.4010116,18.857723 59.5632184,19.2354037 L59.5287356,19.2354037 Z" id="Shape" fill="#662059"></path>
            <path d="M49.8505747,22.3263975 C50.3126295,25.0852718 51.0837647,27.7834068 52.1494253,30.3698758 C53.03438,32.6274089 54.2423709,34.7446069 55.7356322,36.6552795 C57.3140037,38.6999557 59.4317051,40.2638621 61.8505747,41.171118 L62.2298851,40.0909938 L61.0804598,40.228882 C61.7898952,45.5511589 62.8302231,50.8240988 64.1954023,56.0170807 C64.3042246,56.413235 64.616192,56.7212587 65.0137893,56.8251223 C65.4113867,56.9289858 65.8342096,56.8129099 66.1229847,56.5206192 C66.4117599,56.2283284 66.5226154,55.8042288 66.4137931,55.4080745 C65.3908046,51.6965839 64.6321839,47.8242236 64.1149425,44.8826087 C63.862069,43.4118012 63.6666667,42.1708075 63.5402299,41.3090062 C63.4827586,40.8723602 63.4252874,40.5276398 63.4022989,40.2978261 L63.4022989,39.9416149 C63.3486172,39.5091353 63.054824,39.1442328 62.6436782,38.9993789 C60.6265625,38.2335319 58.8631521,36.9203384 57.5517241,35.2074534 C55.6202729,32.6519315 54.1783876,29.7612649 53.2988506,26.6813665 C52.8850575,25.3484472 52.6206897,24.1878882 52.4482759,23.360559 C52.3678161,22.9468944 52.2988506,22.6136646 52.2643678,22.3953416 L52.2643678,22.1425466 L52.2643678,22.0621118 C52.1754943,21.427499 51.588833,20.9850674 50.954023,21.0739132 C50.319213,21.162759 49.8766439,21.7492381 49.9655172,22.3838509 L49.8505747,22.3263975 Z" id="Shape" fill="#662059"></path>
            <ellipse id="Oval" fill="#F4C95E" cx="97.8965517" cy="53.1444099" rx="9.18390805" ry="9.1810559"></ellipse>
            <path d="M100.62069,44.365528 C99.7356322,41.642236 104.988506,35.7015528 104.988506,35.7015528 L90.816092,35.7015528 C90.816092,35.7015528 95.183908,40.7 95.183908,44.365528" id="Shape" fill="#F4C95E"></path>
            <path d="M89.0114943,77.1139752 C92.1424401,76.6389307 95.2084875,75.8061501 98.1494253,74.6319876 C100.563721,73.7033353 102.793776,72.3532677 104.735632,70.6447205 C106.730852,68.8766886 107.966175,66.4068097 108.183908,63.7503106 C108.206261,63.4318787 108.095103,63.1185019 107.877074,62.8852831 C107.659045,62.6520643 107.353796,62.5200243 107.034483,62.5208075 L105.712644,62.5208075 C104.862069,62.5208075 103.643678,62.5208075 102.172414,62.5208075 C98.6436782,62.5208075 93.6436782,62.4173913 88.816092,61.992236 C88.1812819,61.9351209 87.6203513,62.4032753 87.5632184,63.0378882 C87.5060855,63.6725011 87.9743853,64.2332575 88.6091954,64.2903727 C93.5517241,64.7270186 98.5977011,64.8304348 102.172414,64.8304348 C105.149425,64.8304348 107.114943,64.7614907 107.114943,64.7614907 L107.114943,63.6124224 L105.965517,63.5319876 C105.774252,65.61827 104.776283,67.5476254 103.183908,68.9096273 C100.542919,71.0999333 97.455861,72.6880786 94.137931,73.563354 C92.6206897,74.0229814 91.2643678,74.3217391 90.2873563,74.5170807 L89.137931,74.723913 L88.8275862,74.723913 L88.7011494,74.723913 C88.2904993,74.777281 87.9395233,75.0456062 87.7804305,75.4278131 C87.6213378,75.8100201 87.6782984,76.2480424 87.9298558,76.5768814 C88.1814132,76.9057205 88.5893499,77.0754176 89,77.0220497 L89.0114943,77.1139752 Z" id="Shape" fill="#662059"></path>
            <path d="M89.9655172,36.4599379 C90.807347,37.4561993 91.5756533,38.5122924 92.2643678,39.6198758 C92.7633379,40.4090853 93.1940196,41.2394278 93.5517241,42.1018634 C93.8680724,42.828809 94.047327,43.607935 94.0804598,44.4 C94.0804598,45.0346129 94.595075,45.5490683 95.2298851,45.5490683 C95.8646951,45.5490683 96.3793103,45.0346129 96.3793103,44.4 C96.3412537,43.2498112 96.0796883,42.118014 95.6091954,41.0677019 C94.6036128,38.8705548 93.2959592,36.8245965 91.7241379,34.9891304 C91.3051633,34.5099977 90.5769827,34.4611244 90.0977011,34.8799689 C89.6184196,35.2988135 89.5695311,36.0267679 89.9885057,36.5059006 L89.9655172,36.4599379 Z" id="Shape" fill="#662059"></path>
            <path d="M101.712644,44.0208075 C101.696447,43.9103209 101.696447,43.7980642 101.712644,43.6875776 C101.770584,42.9919532 101.970065,42.3154941 102.298851,41.6996894 C102.927131,40.4513552 103.673852,39.2662076 104.528736,38.160559 C104.908046,37.6549689 105.252874,37.2298137 105.494253,36.9310559 L105.781609,36.5863354 L105.862069,36.4944099 C106.159834,36.1555754 106.231779,35.6739288 106.046022,35.2629137 C105.860265,34.8518985 105.451158,34.587527 105,34.5869565 L96.045977,34.5869565 C95.411167,34.5869565 94.8965517,35.1014119 94.8965517,35.7360248 C94.8965517,36.3706378 95.411167,36.8850932 96.045977,36.8850932 L105,36.8850932 L105,35.7360248 L104.137931,34.9776398 C103.317236,35.9344478 102.549794,36.9356488 101.83908,37.9767081 C101.224501,38.8523854 100.678803,39.7744063 100.206897,40.734472 C99.7273817,41.6569784 99.45292,42.6721715 99.4022989,43.710559 C99.4004809,44.0654095 99.4547911,44.4183163 99.5632184,44.7562112 C99.776807,45.3360282 100.41082,45.6431847 100.998402,45.4515067 C101.585985,45.2598288 101.916744,44.6379497 101.747126,44.0437888 L101.712644,44.0208075 Z" id="Shape" fill="#662059"></path>
            <path d="M105.873563,46.5717391 C102.710311,42.6588506 97.1892373,41.5893822 92.7929653,44.0379412 C88.3966934,46.4865002 86.4009029,51.7425809 88.0645133,56.4907136 C89.7281237,61.2388463 94.5684003,64.1012513 99.5321575,63.2723594 C104.495915,62.4434675 108.142804,58.1638008 108.172414,53.1329193 C108.172414,52.4983063 107.657799,51.9838509 107.022989,51.9838509 C106.388178,51.9838509 105.873563,52.4983063 105.873563,53.1329193 C105.874715,57.0446904 103.060561,60.3901118 99.2053713,61.0599594 C95.3501814,61.7298071 91.5719044,59.5298349 90.2526715,55.8470832 C88.9334385,52.1643315 90.4558079,48.0667444 93.8599549,46.137772 C97.2641019,44.2087996 101.562874,45.0078157 104.045977,48.0310559 C104.460591,48.4742872 105.148496,48.518806 105.616815,48.1327151 C106.085133,47.7466242 106.172401,47.0630383 105.816092,46.5717391 L105.873563,46.5717391 Z" id="Shape" fill="#662059"></path>
            <path d="M120.16092,155.193168 C120.425287,151.343789 120.896552,147.597826 121.310345,144.851553 C121.505747,143.46118 121.689655,142.312112 121.816092,141.519255 L121.965517,140.6 L121.965517,140.278261 C122.076609,139.643648 121.652051,139.039163 121.017241,138.928106 C120.382431,138.817048 119.777758,139.241474 119.666667,139.876087 C119.666667,139.876087 118.344828,147.218634 117.793103,155.06677 C117.748667,155.701383 118.227259,156.25185 118.862069,156.296273 C119.496879,156.340696 120.047517,155.862253 120.091954,155.22764 L120.16092,155.193168 Z" id="Shape" fill="#662059"></path>
            <path d="M167.632184,121.468012 C167.793103,124.685404 167.873563,128.362422 167.873563,132.763354 C167.873563,134.395031 167.873563,136.114803 167.873563,137.922671 C167.873563,138.24441 167.873563,138.569979 167.873563,138.899379 C167.873563,148.735404 169.574713,159.927329 171.321839,168.68323 C173.068966,177.43913 174.712644,183.759006 174.770115,183.781988 L175.91954,183.48323 L175.91954,182.334161 L115.758621,182.334161 L115.758621,183.48323 L116.908046,183.747516 C116.908046,183.747516 117.666667,180.518634 118.436782,176.09472 C119.345403,171.164344 119.856624,166.169002 119.965517,161.156832 C119.965517,160.522219 119.450902,160.007764 118.816092,160.007764 C118.181282,160.007764 117.666667,160.522219 117.666667,161.156832 C117.556561,166.034117 117.056887,170.894816 116.172414,175.692547 C115.793103,177.864286 115.425287,179.748758 115.137931,181.081677 C115,181.748137 114.885057,182.230745 114.804598,182.64441 L114.678161,183.195963 C114.595956,183.543107 114.679698,183.90873 114.904809,184.185531 C115.129921,184.462332 115.470866,184.618911 115.827586,184.609317 L175.804598,184.609317 C176.169085,184.621914 176.517924,184.460842 176.744645,184.175262 C176.971367,183.889681 177.049064,183.513485 176.954023,183.161491 C176.954023,183.161491 176.850575,182.782298 176.666667,182.012422 C175.37931,176.979503 170.241379,155.583851 170.241379,138.830435 C170.241379,138.508696 170.241379,138.190787 170.241379,137.876708 C170.241379,136.05352 170.241379,134.322257 170.241379,132.682919 C170.241379,128.293478 170.16092,124.536025 169.988506,121.26118 C169.956765,120.626567 169.416419,120.137835 168.781609,120.169565 C168.146799,120.201296 167.657915,120.741474 167.689655,121.376087 L167.632184,121.468012 Z" id="Shape" fill="#662059"></path>
            <path d="M164.402299,104.26646 C165.755135,107.387407 166.623376,110.696551 166.977011,114.079503 C167.030396,114.490026 167.298805,114.840893 167.68113,114.999936 C168.063456,115.158979 168.501614,115.102036 168.830556,114.850557 C169.159497,114.599078 169.329247,114.191268 169.275862,113.780745 C168.886594,110.170293 167.948599,106.640343 166.494253,103.312733 C166.32178,102.939157 165.963046,102.685944 165.553183,102.648476 C165.14332,102.611008 164.744596,102.794977 164.507206,103.131085 C164.269816,103.467192 164.229826,103.904375 164.402299,104.27795 L164.402299,104.26646 Z" id="Shape" fill="#662059"></path>
            <path d="M181.448276,68.7142857 L189.931034,71.6214286 L190.804598,70.736646 C193.709518,67.7700222 193.878825,63.0806859 191.195402,59.9124224 L190.275862,58.8437888 C190.275862,58.8437888 187.482759,61.3947205 180.632184,61.2798137 L181.448276,68.7142857 Z" id="Shape" fill="#F2DDD7"></path>
            <path d="M147.195402,141.749068 C151.821282,136.990379 155.900274,131.72942 159.356322,126.064286 C162.955563,120.252114 165.169699,113.690399 165.827586,106.886335 C166.655172,95.9242236 169.275862,88.7080745 171.965517,83.9854037 C173.667377,80.8615012 176.019007,78.1383768 178.862069,75.9993789 C178.970046,75.9204029 179.063402,75.8231877 179.137931,75.7121118 L182.482759,70.6447205 L190.126437,73.2645963 C190.531129,73.3917532 190.972981,73.2857417 191.275862,72.9888199 L192.149425,72.1040373 C195.469387,68.7103467 195.658656,63.3477366 192.586207,59.7285714 L191.666667,58.6599379 C191.383882,58.3299783 190.939109,58.1876951 190.517241,58.292236 L190.126437,58.3841615 C185.097783,59.6268944 179.957099,60.3621496 174.781609,60.578882 L174.321839,60.578882 C170.212033,60.407232 166.208325,59.2230709 162.666667,57.131677 C157.739625,54.2446233 153.672504,50.0954646 150.885057,45.1124224 C149.538358,42.6607304 147.55227,40.6196662 145.137931,39.2062112 C143.029848,38.0325437 140.654298,37.4230084 138.241379,37.436646 C135.351355,37.4553364 132.515643,38.2234332 130.011494,39.6658385 C129.637381,39.8614822 129.400675,40.2464183 129.394961,40.668458 C129.389247,41.0904977 129.615444,41.4816974 129.984123,41.687392 C130.352802,41.8930865 130.80461,41.8801614 131.16092,41.6537267 C133.31622,40.4147952 135.755245,39.7537715 138.241379,39.7347826 C140.251603,39.7238887 142.230797,40.2304051 143.988506,41.2055901 C146.061599,42.4111478 147.766469,44.1591901 148.91954,46.2614907 C151.918505,51.5868907 156.28278,56.0172376 161.563218,59.0965839 C165.439144,61.3877207 169.822739,62.6826509 174.321839,62.865528 L174.827586,62.865528 C178.447741,62.7918805 182.054875,62.4074441 185.609195,61.7164596 C188.793103,61.1304348 191.114943,60.5673913 191.137931,60.5673913 L190.862069,59.418323 L189.988506,60.1652174 L190.908046,61.2338509 C193.205556,63.9482955 193.061196,67.9642499 190.574713,70.5068323 L190.206897,70.8860248 L182.402299,68.2201863 C181.90763,68.0485176 181.35942,68.2327723 181.068966,68.668323 L177.229885,74.4826087 L178.183908,75.1145963 L177.494253,74.1953416 C174.403362,76.5249942 171.844613,79.4864236 169.988506,82.8822981 C167.091954,87.9381988 164.402299,95.5220497 163.551724,106.748447 C162.914712,113.200619 160.802884,119.420123 157.37931,124.926708 C154.010661,130.442612 150.035789,135.564789 145.528736,140.197826 C145.090717,140.65792 145.108728,141.385875 145.568966,141.823758 C146.029203,142.26164 146.757383,142.243635 147.195402,141.78354" id="Shape" fill="#662059"></path>
            <path d="M113.264368,124.857764 C112.793103,128.753106 112.517241,131.074224 112.517241,131.074224 C112.477519,131.398604 112.577841,131.724549 112.793103,131.970497 L132.333333,154.285404 C132.739467,154.749286 133.439408,154.810131 133.91954,154.423292 C137.039209,151.859743 140.027673,149.140663 142.873563,146.276398 C143.324278,145.828995 143.326851,145.101041 142.87931,144.650466 C142.431769,144.199891 141.703589,144.197318 141.252874,144.64472 C138.770115,147.126708 136.574713,149.126087 135,150.493478 C134.218391,151.182919 133.586207,151.711491 133.149425,152.079193 L132.655172,152.481366 L132.494253,152.619255 L133.206897,153.515528 L134.068966,152.757143 L114.528736,130.442236 L113.666667,131.200621 L114.816092,131.338509 L115.011494,129.695342 L115.563218,125.099068 C115.612496,124.688546 115.438952,124.282926 115.107958,124.035002 C114.776963,123.787078 114.338805,123.734515 113.958532,123.897114 C113.57826,124.059712 113.313646,124.412769 113.264368,124.823292 L113.264368,124.857764 Z" id="Shape" fill="#662059"></path>
            <path d="M124.689655,45.2388199 C124.493697,45.7521765 124.332415,46.2780989 124.206897,46.8130435 C123.586207,49.2375776 122.816092,53.6040373 121.908046,59.1770186 C119.298851,75.8959627 115.850575,103.347205 113.942529,119.054969 C113.866352,119.689582 114.319213,120.265772 114.954023,120.341925 C115.588833,120.418079 116.165202,119.965358 116.241379,119.330745 C117.609195,108.173292 119.689655,91.0636646 121.793103,76.1257764 C122.816092,68.6568323 123.827586,61.7279503 124.712644,56.3618012 C125.149425,53.6729814 125.563218,51.3863354 125.91954,49.6167702 C126.103448,48.7319876 126.264368,47.9850932 126.425287,47.3875776 C126.524678,46.9586096 126.651373,46.5364253 126.804598,46.1236025 C127.045825,45.5365856 126.76536,44.8652213 126.178161,44.6240684 C125.590962,44.3829155 124.919389,44.6632937 124.678161,45.2503106 L124.689655,45.2388199 Z" id="Shape" fill="#662059"></path>
            <path d="M182.91954,82.0090062 L183.689655,86.7431677 C183.755359,87.1536903 184.035151,87.497987 184.423637,87.6463646 C184.812122,87.7947422 185.250281,87.7246586 185.573062,87.4625137 C185.895844,87.2003687 186.05421,86.7859884 185.988506,86.3754658 L185.218391,81.6413043 C185.116821,81.0066914 184.519868,80.5745489 183.885057,80.676087 C183.250247,80.777625 182.817971,81.3743933 182.91954,82.0090062" id="Shape" fill="#662059"></path>
            <path d="M179.229885,61.5785714 L180.885057,69.4956522 L182.114943,77.0795031 C182.216512,77.7141159 182.813466,78.1462583 183.448276,78.0447203 C184.083086,77.9431822 184.515363,77.3464141 184.413793,76.7118012 L183.172414,69.0934783 L181.517241,61.1649068 C181.433058,60.7543842 181.13619,60.4199429 180.738465,60.2875638 C180.34074,60.1551847 179.902582,60.2449793 179.58904,60.5231228 C179.275498,60.8012664 179.134207,61.2255022 179.218391,61.6360248 L179.229885,61.5785714 Z" id="Shape" fill="#662059"></path>
            <polygon id="Shape" fill="#F4C95E" points="194.321839 101.646584 179.264368 102.853106 178.057471 87.0993789 193.126437 85.8928571"></polygon>
            <path d="M183.367816,101.370807 L180.321839,101.612112 L179.298851,88.1450311 L192.068966,87.1223602 L193.091954,100.589441 L188.758621,100.934161 C188.347971,100.967003 187.98604,101.216361 187.809166,101.588305 C187.632292,101.960249 187.667344,102.398272 187.90112,102.737374 C188.134896,103.076476 188.531879,103.26514 188.942529,103.232298 L194.413793,102.795652 C195.044756,102.746727 195.51746,102.197123 195.471264,101.566149 L194.321839,85.8124224 C194.298404,85.5072942 194.154183,85.2241165 193.921151,85.0256688 C193.688118,84.827221 193.385526,84.7298993 193.08046,84.7552795 L178.022989,85.9043478 C177.392025,85.953273 176.919322,86.5028769 176.965517,87.1338509 L178.114943,102.887578 C178.138378,103.192706 178.282598,103.475883 178.515631,103.674331 C178.748664,103.872779 179.051255,103.970101 179.356322,103.94472 L183.551724,103.611491 C184.186534,103.560722 184.65998,103.00511 184.609195,102.370497 C184.558411,101.735884 184.002626,101.262585 183.367816,101.313354 L183.367816,101.370807 Z" id="Shape" fill="#662059"></path>
            <polygon id="Shape" fill="#C93E4F" points="161.068966 15.0298137 149 3.73447205 135.563218 10.6059006"></polygon>
            <path d="M138.298851,37.7698758 C137.589255,36.9971417 136.982684,36.135847 136.494253,35.2074534 C135.388395,33.1846584 134.807468,30.916981 134.804598,28.6118012 C134.886971,25.2479968 135.958348,21.9829088 137.885057,19.223913 C138.108862,18.8790741 138.131639,18.4410686 137.944809,18.0748891 C137.757979,17.7087096 137.389926,17.4699875 136.979292,17.4486469 C136.568658,17.4273064 136.177827,17.6265896 135.954023,17.9714286 C133.786241,21.1036942 132.587128,24.8038056 132.505747,28.6118012 C132.511131,31.3655208 133.22352,34.0717593 134.574713,36.4714286 C135.149532,37.5357363 135.860486,38.5207188 136.689655,39.4015528 C137.14037,39.8489549 137.868551,39.8463826 138.316092,39.3958075 C138.763633,38.9452323 138.76106,38.2172779 138.310345,37.7698758 L138.298851,37.7698758 Z" id="Shape" fill="#662059"></path>
            <path d="M149.586207,34.207764 C150.985834,36.6139252 152.835558,38.7283532 155.034483,40.4357143 L155.747126,39.5279503 L154.597701,39.5279503 L154.597701,53.3167702 C154.597701,53.9513831 155.112316,54.4658385 155.747126,54.4658385 C156.381936,54.4658385 156.896552,53.9513831 156.896552,53.3167702 L156.896552,39.5279503 C156.898457,39.1742897 156.737347,38.839454 156.45977,38.6201863 C154.493367,37.0961093 152.838754,35.2079398 151.586207,33.0586957 C151.390502,32.6846987 151.005447,32.4480664 150.583276,32.4423539 C150.161105,32.4366414 149.769784,32.6627685 149.564025,33.0313331 C149.358267,33.3998977 149.371196,33.8515654 149.597701,34.207764 L149.586207,34.207764 Z" id="Shape" fill="#662059"></path>
            <path d="M147.057471,20.4649068 C146.869058,21.507422 146.780535,22.5655253 146.793103,23.6248447 C146.791353,25.7096392 147.089421,27.7838579 147.678161,29.7838509 C147.795196,30.1779527 148.113657,30.4796995 148.513583,30.5754263 C148.913509,30.6711531 149.334141,30.5463167 149.617031,30.2479418 C149.899922,29.9495669 150.002093,29.5229837 149.885057,29.128882 C149.359483,27.3414007 149.092409,25.487946 149.091954,23.6248447 C149.091473,22.9567213 149.129852,22.2891351 149.206897,21.6254658 C149.206897,21.3956522 149.206897,21.2118012 149.275862,21.0968944 L149.275862,20.9704969 C149.360045,20.5599743 149.218755,20.1357385 148.905213,19.857595 C148.591671,19.5794515 148.153513,19.489657 147.755788,19.622036 C147.358063,19.7544151 147.061195,20.0888563 146.977011,20.4993789 L147.057471,20.4649068 Z" id="Shape" fill="#662059"></path>
            <path d="M233.931034,25.1531056 L230.62069,33.1965839 L235.149425,42.0903727 L245.609195,44.8826087 L248.126437,41.4354037 C249.493968,39.5806754 249.318921,37.0092471 247.712644,35.3568323 C246.923037,34.5410341 246.453785,33.4682083 246.390805,32.3347826 L245.965517,24.5326087 L233.931034,25.1531056 Z" id="Shape" fill="#F4C95E"></path>
            <path d="M134.149425,18.6953416 L160.287356,23.5329193 C160.606926,23.5925389 160.936806,23.5140898 161.19529,23.3170021 C161.453774,23.1199145 161.616687,22.8226219 161.643678,22.4987578 L162.229885,15.1791925 C162.273823,14.587942 161.860572,14.0603404 161.275862,13.9611801 L135.770115,9.54875776 C135.135305,9.44087357 134.533205,9.86787156 134.425287,10.5024845 C134.31737,11.1370974 134.7445,11.7390102 135.37931,11.8468944 L159.850575,16.0869565 L159.448276,21.0854037 L134.563218,16.4891304 C133.928408,16.371727 133.318589,16.7910082 133.201149,17.4256211 C133.08371,18.060234 133.503121,18.6698637 134.137931,18.7872671 L134.149425,18.6953416 Z" id="Shape" fill="#662059"></path>
            <path d="M154.632184,10.5714286 L160.298851,15.8686335 C160.762262,16.3033433 161.490442,16.2801928 161.925287,15.8169254 C162.360132,15.353658 162.336974,14.6257037 161.873563,14.1909938 L156.206897,8.89378882 C155.743485,8.45907898 155.015305,8.48222947 154.58046,8.94549689 C154.145615,9.40876432 154.168773,10.1367187 154.632184,10.5714286" id="Shape" fill="#662059"></path>
            <path d="M136.091954,11.6285714 L148.804598,5.14782609 L152.045977,8.18136646 C152.509388,8.6160763 153.237569,8.59292581 153.672414,8.12965839 C154.107259,7.66639096 154.084101,6.93843655 153.62069,6.50372671 L149.735632,2.84968944 C149.381468,2.51802309 148.857097,2.44445001 148.425287,2.66583851 L135,9.56024845 C134.621665,9.73969925 134.37089,10.1106422 134.345418,10.5284972 C134.319946,10.9463522 134.523808,11.344992 134.877547,11.5690413 C135.231285,11.7930906 135.678919,11.8070927 136.045977,11.6055901 L136.091954,11.6285714 Z" id="Shape" fill="#662059"></path>
            <path d="M156.356322,22.3034161 L158.034483,30.7031056 L154.678161,39.102795 C154.443281,39.692985 154.731466,40.3617771 155.321839,40.5965839 C155.912212,40.8313906 156.581212,40.5432956 156.816092,39.9531056 L160.264368,31.2431677 C160.34693,31.0351009 160.366905,30.8074575 160.321839,30.5881988 L158.586207,21.8552795 C158.462419,21.2206666 157.847454,20.8065301 157.212644,20.9302796 C156.577834,21.0540291 156.163568,21.6688033 156.287356,22.3034161 L156.356322,22.3034161 Z" id="Shape" fill="#662059"></path>
            <path d="M237.505747,41.9180124 C230.356322,41.9180124 222.862069,46.9854037 219.367816,70.518323 C215.873563,94.0512422 212.218391,113.746273 205.068966,132.223292 C205.068966,132.223292 214.264368,146.517702 230.701149,135.670497 C247.137931,124.823292 269.413793,99.3714286 276.034483,71.9086957 C276.034483,71.9086957 255.632184,74.3447205 251.586207,59.2689441 C249.091954,49.8236025 246.91954,41.9180124 237.505747,41.9180124 Z" id="Shape" fill="#F4C95E"></path>
            <path d="M261.735632,155.043789 C261.643678,153.511698 261.597701,151.925983 261.597701,150.286646 C261.597701,149.214182 261.62069,148.126398 261.666667,147.023292 C261.789272,143.79824 261.850575,140.783851 261.850575,137.980124 C261.939226,131.449545 261.555081,124.921113 260.701149,118.445963 C260.440434,116.538671 260.05649,114.65025 259.551724,112.792547 C259.376072,112.163031 259.161091,111.545151 258.908046,110.942547 C258.720818,110.477006 258.469336,110.039951 258.16092,109.644099 C257.754641,109.155447 257.029034,109.088568 256.54023,109.49472 C256.051426,109.900873 255.984526,110.626255 256.390805,111.114907 C256.555436,111.342071 256.690613,111.589174 256.793103,111.850311 C257.214115,112.899381 257.541071,113.983768 257.770115,115.090683 C258.758621,119.468634 259.62069,127.109938 259.62069,137.91118 C259.62069,140.684265 259.559387,143.668012 259.436782,146.862422 C259.390805,148.00383 259.367816,149.122257 259.367816,150.217702 C259.367816,151.895342 259.413793,153.527019 259.505747,155.112733 C259.543836,155.747346 260.089328,156.230934 260.724138,156.192857 C261.358948,156.15478 261.842686,155.609458 261.804598,154.974845 L261.735632,155.043789 Z" id="Shape" fill="#662059"></path>
            <path d="M219.632184,148.149379 L216.655172,183.701553 C216.629453,184.021893 216.739101,184.338362 216.95751,184.57417 C217.175919,184.809979 217.483129,184.943577 217.804598,184.942547 L267.83908,184.942547 C268.247015,184.941845 268.624016,184.725047 268.829709,184.372876 C269.035403,184.020706 269.038969,183.58593 268.83908,183.230435 C265.77074,177.043846 263.695541,170.413026 262.689655,163.581366 C262.588086,162.946754 261.991132,162.514611 261.356322,162.616149 C260.721512,162.717687 260.289235,163.314455 260.390805,163.949068 C262.482759,176.58882 266.770115,184.276087 266.816092,184.356522 L267.816092,183.793478 L267.816092,182.64441 L219.045977,182.64441 L221.91954,148.33323 C221.954445,147.922707 221.76762,147.524753 221.429439,147.289272 C221.091258,147.053791 220.6531,147.016559 220.280014,147.191601 C219.906928,147.366643 219.655595,147.727366 219.62069,148.137888 L219.632184,148.149379 Z" id="Shape" fill="#662059"></path>
            <path d="M270.356322,90.7304348 C273.289131,84.8088091 275.570677,78.5865901 277.16092,72.1729814 C277.250251,71.8069834 277.154442,71.4204573 276.904503,71.1385025 C276.654563,70.8565477 276.282243,70.7149836 275.908046,70.7596273 C274.933996,70.8551228 273.955727,70.9011447 272.977011,70.8975155 C269.122518,70.9509331 265.29392,70.2603609 261.701149,68.8636646 C259.663135,68.0362595 257.81374,66.8050155 256.264368,65.2440994 C254.563077,63.4738973 253.351066,61.2921638 252.747126,58.9127329 C251.482759,54.2130435 250.321839,49.8121118 248.149425,46.4223602 C247.102294,44.7228241 245.65376,43.3063063 243.931034,42.297205 C241.972728,41.2336223 239.768,40.7063961 237.54023,40.7689441 C234.97486,40.7294084 232.45387,41.4403383 230.287356,42.8142857 C227.489975,44.748591 225.259924,47.3944665 223.827586,50.4785714 C223.626021,50.8455154 223.640027,51.2930103 223.864146,51.6466388 C224.088265,52.0002673 224.487029,52.2040664 224.905014,52.1786024 C225.322998,52.1531384 225.694057,51.9024413 225.873563,51.5242236 C227.120345,48.807318 229.068301,46.4712892 231.517241,44.7562112 C233.312217,43.6164617 235.402629,43.0290907 237.528736,43.0670807 C239.357654,43.0052378 241.170253,43.4295 242.781609,44.2965839 C244.929218,45.6557247 246.581716,47.6703402 247.494253,50.0419255 C248.739205,53.1005345 249.74603,56.2506862 250.505747,59.4642857 C251.208574,62.2230902 252.614403,64.7527965 254.586207,66.8068323 C257.227813,69.3988554 260.526043,71.2222503 264.126437,72.0810559 C267.007441,72.8133004 269.969908,73.176254 272.942529,73.1611801 C274.024895,73.1699699 275.106942,73.1201038 276.183908,73.0118012 L276.045977,71.8627329 L274.896552,71.5984472 C273.34624,77.8491449 271.122516,83.9133654 268.264368,89.6847826 C268.083682,90.0542529 268.113892,90.4920225 268.343619,90.8331878 C268.573346,91.1743531 268.967689,91.367083 269.378102,91.3387779 C269.788515,91.3104729 270.152647,91.0654331 270.333333,90.6959627 L270.356322,90.7304348 Z" id="Shape" fill="#662059"></path>
            <path d="M221.586207,55.7068323 C220.028329,60.462963 218.908725,65.3515327 218.241379,70.3114907 C214.793103,93.8214286 211.103448,113.424534 204.011494,131.763665 C203.879149,132.105168 203.917573,132.489284 204.114943,132.797826 C205.176268,134.319579 206.454106,135.678313 207.908046,136.831056 C210.98916,139.396987 214.863558,140.81797 218.873563,140.852795 C223.354531,140.721023 227.695293,139.26122 231.344828,136.658696 C242.942529,129.005901 257.298851,114.263354 267.264368,96.6136646 C267.469693,96.25651 267.468822,95.8169799 267.262084,95.4606411 C267.055345,95.1043023 266.674147,94.8852911 266.262084,94.8861069 C265.85002,94.8869227 265.469693,95.1074416 265.264368,95.4645963 C255.505747,112.769565 241.298851,127.328261 230.08046,134.71677 C225.735632,137.57795 222.034483,138.566149 218.885057,138.566149 C215.398906,138.535024 212.031399,137.296459 209.356322,135.061491 C208.449924,134.329928 207.614786,133.514286 206.862069,132.625466 C206.586207,132.292236 206.37931,132.01646 206.241379,131.832609 L206.091954,131.625776 L205.965517,131.706211 L206.057471,131.545342 L205.931034,131.625776 L206.057471,131.545342 L205.091954,132.165839 L206.16092,132.579503 C213.356322,113.964596 217.034483,94.1776398 220.517241,70.6332298 C221.167122,65.8137662 222.255935,61.0637073 223.770115,56.442236 C223.949602,55.8506657 223.628749,55.2231553 223.043989,55.0221099 C222.459229,54.8210645 221.820159,55.1185451 221.597701,55.6953416 L221.586207,55.7068323 Z" id="Shape" fill="#662059"></path>
            <path d="M276.034483,73.057764 L294.344828,73.057764 L294.344828,71.9086957 L293.287356,71.460559 L293.873563,71.7018634 L293.287356,71.4490683 L293.873563,71.6903727 L293.287356,71.4375776 C293.287356,71.4375776 293.287356,71.5295031 293.16092,71.7018634 C292.369495,73.0881623 291.263094,74.2690068 289.931034,75.1490683 C287.102687,76.9414765 283.794161,77.8274851 280.448276,77.6885093 C278.440741,77.6720359 276.439349,77.4642636 274.471264,77.0680124 C274.060614,76.9900131 273.639533,77.13695 273.366637,77.4534733 C273.093742,77.7699967 273.010492,78.208019 273.148247,78.6025417 C273.286001,78.9970643 273.623833,79.2881498 274.034483,79.3661491 C276.146721,79.7878316 278.294377,80.0071477 280.448276,80.021118 C286.195402,80.021118 289.977011,78.1940994 292.252874,76.3096273 C293.585266,75.2674277 294.662379,73.9352087 295.402299,72.4142857 C295.552581,72.0595714 295.515066,71.6531754 295.302387,71.3319454 C295.089709,71.0107154 294.730165,70.8173946 294.344828,70.8170807 L276.034483,70.8170807 C275.399673,70.8170807 274.885057,71.3315362 274.885057,71.9661491 C274.885057,72.600762 275.399673,73.1152174 276.034483,73.1152174 L276.034483,73.057764 Z" id="Shape" fill="#662059"></path>
            <polyline id="Shape" fill="#F4C95E" points="276.574713 71.5984472 276.574713 54.9944099 290.701149 54.9944099 290.701149 71.5984472 276.574713 71.5984472"></polyline>
            <path d="M254.413793,24.1763975 C254.413793,24.1763975 255.988506,33.0357143 254.413793,38.0916149 C253.760564,40.6780976 253.678199,43.3757095 254.172414,45.997205 C254.289758,46.7290646 253.980134,47.4638729 253.37434,47.8912155 C252.768547,48.318558 251.97225,48.3638951 251.321839,48.0080745 L245.689655,44.8826087 L248.436782,41.1596273 C249.67153,39.4844093 249.516061,37.1628169 248.068966,35.6670807 L246.574713,34.1273292 L246.045977,24.5670807" id="Shape" fill="#F2DDD7"></path>
            <path d="M276.586207,71.5984472 L277.735632,71.5984472 L277.735632,56.1434783 L289.563218,56.1434783 L289.563218,70.4378882 L276.586207,70.4378882 L276.586207,71.5869565 L276.586207,72.7360248 L290.712644,72.7360248 C291.347454,72.7360248 291.862069,72.2215694 291.862069,71.5869565 L291.862069,54.9944099 C291.862069,54.359797 291.347454,53.8453416 290.712644,53.8453416 L276.586207,53.8453416 C275.951397,53.8453416 275.436782,54.359797 275.436782,54.9944099 L275.436782,71.5869565 C275.436782,72.2215694 275.951397,72.7360248 276.586207,72.7360248 L276.586207,71.5869565" id="Shape" fill="#662059"></path>
            <polygon id="Shape" fill="#CEA045" points="227.735632 18.3965839 257.37931 16.4776398 258.528736 24.0270186 228.609195 25.4059006"></polygon>
            <polyline id="Shape" fill="#F4C95E" points="231.402299 18.1552795 230.701149 8.11242236 236.275862 5.32018634 241.402299 10.376087 246.735632 3.02204969 252.83908 5.91770186 252.83908 16.4776398"></polyline>
            <path d="M236.977011,23.8776398 L229.62069,24.2223602 L229.045977,19.4652174 L256.413793,17.6956522 L257.218391,22.9468944 L241.264368,23.6822981 C240.853718,23.7007717 240.48412,23.9368531 240.294798,24.3016128 C240.105477,24.6663725 240.125194,25.1043949 240.346523,25.4506811 C240.567851,25.7969673 240.957166,25.9989083 241.367816,25.9804348 L258.609195,25.1875776 C258.934272,25.1717956 259.237417,25.0189852 259.443391,24.7670741 C259.649365,24.5151629 259.738857,24.1877681 259.689655,23.8661491 L258.54023,16.3167702 C258.451966,15.7276967 257.928053,15.3037081 257.333333,15.3400621 L227.689655,17.2590062 C227.373524,17.2788082 227.07958,17.4281484 226.877229,17.6717638 C226.674878,17.9153791 226.58206,18.231674 226.62069,18.5459627 L227.494253,25.5667702 C227.564395,26.1470095 228.059051,26.5821718 228.643678,26.5779503 L237.068966,26.1872671 C237.479616,26.1687936 237.849213,25.9327121 238.038535,25.5679524 C238.227856,25.2031927 238.208139,24.7651703 237.986811,24.4188841 C237.765482,24.0725979 237.376167,23.8706569 236.965517,23.8891304 L236.977011,23.8776398 Z" id="Shape" fill="#662059"></path>
            <path d="M251.701149,10.6978261 L251.701149,16.4431677 C251.701149,17.0777806 252.215765,17.592236 252.850575,17.592236 C253.485385,17.592236 254,17.0777806 254,16.4431677 L254,10.6978261 C254,10.0632132 253.485385,9.54875776 252.850575,9.54875776 C252.215765,9.54875776 251.701149,10.0632132 251.701149,10.6978261" id="Shape" fill="#662059"></path>
            <path d="M232.551724,18.0748447 L231.896552,8.79037267 L236.057471,6.71055901 L240.655172,11.1919255 C240.892898,11.4270195 241.221249,11.5469671 241.554588,11.5204847 C241.887927,11.4940024 242.193206,11.3237159 242.390805,11.0540373 L247.16092,4.46987578 L252.402299,6.95186335 C252.976802,7.22474691 253.663813,6.98038059 253.936782,6.4060559 C254.20975,5.83173122 253.965308,5.14493324 253.390805,4.87204969 L247.287356,1.97639752 C246.785767,1.7388908 246.186055,1.8936071 245.862069,2.34409938 L241.264368,8.61801242 L237.091954,4.50434783 C236.741011,4.1597371 236.209605,4.07658645 235.770115,4.29751553 L230.195402,7.07826087 C229.765264,7.29166708 229.513159,7.74989637 229.563218,8.22732919 L230.264368,18.2701863 C230.308805,18.9047992 230.859443,19.3832428 231.494253,19.3388199 C232.129063,19.294397 232.607655,18.7439297 232.563218,18.1093168 L232.551724,18.0748447 Z" id="Shape" fill="#662059"></path>
            <path d="M232.954023,24.6819876 L229.643678,32.7254658 C229.505473,33.0283636 229.505473,33.3762948 229.643678,33.6791925 L231.517241,37.3562112 L234.172414,42.5614907 C234.471599,43.1061497 235.149703,43.3143694 235.703143,43.0315189 C236.256583,42.7486684 236.484834,42.0772312 236.218391,41.5158385 L233.643678,36.3680124 L232.011494,33.1621118 L235.126437,25.5897516 C235.282484,25.2100182 235.224029,24.7759058 234.973092,24.4509403 C234.722154,24.1259749 234.316858,23.9595264 233.909873,24.0142943 C233.502889,24.0690623 233.156047,24.3367262 233,24.7164596 L232.954023,24.6819876 Z" id="Shape" fill="#662059"></path>
            <path d="M253.287356,24.3717391 L253.287356,24.5326087 C253.697759,27.078904 253.916763,29.6523584 253.942529,32.2313665 C253.991794,34.0911376 253.775045,35.9484078 253.298851,37.7468944 C252.87421,39.198202 252.668878,40.7047947 252.689655,42.2167702 C252.699432,43.5409539 252.81087,44.862434 253.022989,46.1695652 L253.022989,46.3074534 C253.022542,46.5201552 252.935374,46.7234826 252.781609,46.8704969 C252.634718,47.0160982 252.436735,47.0985654 252.229885,47.1003106 C252.096627,47.0992272 251.965931,47.0635939 251.850575,46.9968944 L247.367816,44.5034161 L249.103448,42.1478261 C250.798834,39.838767 250.580263,36.6437766 248.586207,34.5869565 C247.986297,33.966705 247.631105,33.1504264 247.586207,32.2888199 L247.16092,24.486646 C247.138334,24.0761234 246.898385,23.7088304 246.531458,23.5231229 C246.164532,23.3374153 245.726373,23.3615066 245.382033,23.5863216 C245.037692,23.8111367 244.839483,24.2025209 244.862069,24.6130435 L245.287356,32.4152174 C245.378153,33.8305976 245.97834,35.1652912 246.977011,36.1726708 C248.186274,37.4247909 248.317327,39.3657227 247.287356,40.7689441 L244.770115,44.2161491 C244.573085,44.4823227 244.500493,44.8205291 244.570948,45.1440789 C244.641402,45.4676287 244.848053,45.7450666 245.137931,45.9052795 L250.770115,49.0307453 C251.727806,49.5645625 252.896675,49.5513936 253.842088,48.9961354 C254.787502,48.4408772 255.368033,47.4265935 255.367816,46.3304348 C255.380577,46.165982 255.380577,46.0007882 255.367816,45.8363354 C255.176027,44.6430562 255.076117,43.4368237 255.068966,42.2282609 C255.021977,40.962273 255.161399,39.6962558 255.482759,38.4708075 C256.028971,36.4530783 256.280615,34.3670234 256.229885,32.2773292 C256.20591,29.5091397 255.967651,26.7469571 255.517241,24.015528 C255.445378,23.6050053 255.159894,23.2639937 254.768328,23.1209489 C254.376763,22.9779041 253.938604,23.0545581 253.618903,23.3220359 C253.299201,23.5895138 253.146527,24.0071793 253.218391,24.4177019 L253.287356,24.3717391 Z" id="Shape" fill="#662059"></path>
            <path d="M61.4942529,124.754348 C60.5057471,119.974224 59.1954023,114.516149 58.045977,109.48323 C57.955634,109.072707 57.6530744,108.741551 57.2522694,108.614505 C56.8514645,108.487459 56.4133061,108.583824 56.1028442,108.8673 C55.7923822,109.150776 55.6567834,109.578297 55.7471264,109.98882 C56.8965517,115.04472 58.2068966,120.491304 59.1954023,125.225466 C59.3223644,125.860079 59.9399026,126.271643 60.5747126,126.14472 C61.2095226,126.017798 61.6212147,125.400451 61.4942529,124.765839 L61.4942529,124.754348 Z" id="Shape" fill="#FFFFFF"></path>
            <path d="M62.862069,134.119255 C62.7356322,132.820807 62.5172414,131.338509 62.2298851,129.718323 C62.1187933,129.08371 61.5141204,128.659284 60.8793103,128.770342 C60.2445003,128.881399 59.8199427,129.485884 59.9310345,130.120497 C60.2068966,131.69472 60.4252874,133.131056 60.5402299,134.349068 C60.6005368,134.983681 61.1640405,135.449263 61.7988506,135.388975 C62.4336606,135.328687 62.8993874,134.765358 62.8390805,134.130745 L62.862069,134.119255 Z" id="Shape" fill="#FFFFFF"></path>
            <path d="M36.2643678,184.954037 L87.3218391,184.954037 C87.9566491,184.954037 88.4712644,184.439582 88.4712644,183.804969 C88.4712644,183.170356 87.9566491,182.655901 87.3218391,182.655901 L36.2643678,182.655901 C35.6295578,182.655901 35.1149425,183.170356 35.1149425,183.804969 C35.1149425,184.439582 35.6295578,184.954037 36.2643678,184.954037" id="Shape" fill="#662059"></path>
            <path d="M110.655172,184.954037 L186.229885,184.954037 C186.864695,184.954037 187.37931,184.439582 187.37931,183.804969 C187.37931,183.170356 186.864695,182.655901 186.229885,182.655901 L110.655172,182.655901 C110.020362,182.655901 109.505747,183.170356 109.505747,183.804969 C109.505747,184.439582 110.020362,184.954037 110.655172,184.954037" id="Shape" fill="#662059"></path>
            <path d="M207.908046,184.954037 L283.482759,184.954037 C284.117569,184.954037 284.632184,184.439582 284.632184,183.804969 C284.632184,183.170356 284.117569,182.655901 283.482759,182.655901 L207.908046,182.655901 C207.273236,182.655901 206.758621,183.170356 206.758621,183.804969 C206.758621,184.439582 207.273236,184.954037 207.908046,184.954037" id="Shape" fill="#662059"></path>
            <path d="M124.37931,105.11677 L128.195402,75.1031056 C128.246734,74.692583 128.075086,74.2858681 127.745119,74.0361665 C127.415151,73.7864648 126.976992,73.731712 126.595693,73.8925329 C126.214394,74.0533538 125.947883,74.4053159 125.896552,74.8158385 L122.149425,104.78354 C122.070074,105.418153 122.520362,105.996916 123.155172,106.076242 C123.789982,106.155569 124.368925,105.70542 124.448276,105.070807" id="Shape" fill="#FFFFFF"></path>
            <path d="M129.264368,69.4267081 L129.747126,65.3590062 C129.794351,64.9484836 129.618909,64.5439589 129.286888,64.2978124 C128.954867,64.051666 128.516709,64.0012934 128.137463,64.1656696 C127.758217,64.3300457 127.495501,64.6841979 127.448276,65.0947205 L126.965517,69.1624224 C126.892514,69.7970353 127.347949,70.3706531 127.982759,70.4436335 C128.617569,70.516614 129.191365,70.061321 129.264368,69.4267081" id="Shape" fill="#FFFFFF"></path>
            <path d="M24.4482759,90.9487578 C21.0647383,90.9741423 18.3424237,93.7367678 18.3678161,97.1192547 C18.3932085,100.501741 21.1566923,103.223211 24.5402299,103.197826 C24.5402299,99.4863354 24.4482759,95.5220497 24.4482759,91.1326087 L24.4482759,90.9487578" id="Shape" fill="#F7DCDC"></path>
            <path d="M26.7471264,91.3279503 C26.7471264,95.4531056 26.7471264,99.2220497 26.8390805,102.818634 C29.2384134,101.911289 30.818224,99.6056514 30.7977025,97.0412651 C30.7771811,94.4768788 29.1606734,92.1968039 26.7471264,91.3279503" id="Shape" fill="#A6EAE9"></path>
            <path d="M24.5517241,90.9487578 L24.4482759,90.9487578 L24.4482759,91.1326087 C24.4482759,95.510559 24.5057471,99.4863354 24.5402299,103.197826 L24.6091954,103.197826 C25.338782,103.200186 26.0628816,103.071757 26.7471264,102.818634 C26.7471264,99.2680124 26.6551724,95.510559 26.6551724,91.3279503 L26.2298851,91.1900621 C25.6701572,91.0241009 25.089573,90.9389749 24.5057471,90.9372671" id="Shape" fill="#C53799"></path>
            <path d="M166.977011,53.2593168 C164.750403,53.2634248 162.700634,54.4726765 161.62069,56.4192547 C161.996169,56.6567288 162.37931,56.8865424 162.770115,57.1086957 C165.910624,58.9482356 169.404612,60.1033997 173.022989,60.4984472 C173.350325,58.7113252 172.867068,56.8711582 171.703816,55.4752454 C170.540564,54.0793326 168.817399,53.2717732 167,53.2708075" id="Shape" fill="#F7DCDC"></path>
            <path d="M160.850575,58.6714286 C160.521671,61.4989471 162.184859,64.1802681 164.864623,65.1427094 C167.544388,66.1051508 170.534209,65.0949648 172.08046,62.7046584 C168.371158,62.2064384 164.796928,60.980253 161.563218,59.0965839 L160.850575,58.6714286" id="Shape" fill="#FF9994"></path>
            <path d="M161.574713,56.4192547 C161.184616,57.1302875 160.938546,57.9112184 160.850575,58.7173913 L161.563218,59.1425466 C164.796928,61.0262158 168.371158,62.2524011 172.08046,62.7506211 C172.513052,62.0751669 172.809774,61.3218829 172.954023,60.5329193 C169.335647,60.1378718 165.841659,58.9827077 162.701149,57.1431677 C162.32567,56.9286749 161.942529,56.6988613 161.551724,56.4537267" id="Shape" fill="#C53799"></path>
            <path d="M278.287356,49.5937888 C275.509763,49.6395008 273.110575,51.547815 272.441895,54.2432677 C271.773215,56.9387204 273.002425,59.7465979 275.436782,61.084472 L275.436782,54.9369565 C275.436782,54.3023436 275.951397,53.7878882 276.586207,53.7878882 L284.126437,53.7878882 C283.308643,51.2545475 280.950172,49.537297 278.287356,49.5363354" id="Shape" fill="#F7DCDC"></path>
            <path d="M284.402299,56.1434783 L277.735632,56.1434783 L277.735632,61.8198758 L278.287356,61.8198758 C281.521446,61.8143265 284.196387,59.3010648 284.402299,56.0745342" id="Shape" fill="#FFF1A2"></path>
            <path d="M284.114943,53.8453416 L276.574713,53.8453416 C275.939903,53.8453416 275.425287,54.359797 275.425287,54.9944099 L275.425287,61.1419255 C276.139899,61.5158973 276.920904,61.7462223 277.724138,61.8198758 L277.724138,56.1434783 L284.390805,56.1434783 C284.446654,55.3668469 284.353009,54.586714 284.114943,53.8453416" id="Shape" fill="#C53799"></path>
            <path d="M241.206897,120.41087 C245.740048,116.325147 249.991158,111.937153 253.931034,107.277019 C254.293314,106.783197 254.204536,106.092117 253.729196,105.705832 C253.253855,105.319546 252.559,105.373806 252.149425,105.829193 C248.279798,110.403034 244.105546,114.710353 239.655172,118.721739 C239.32167,118.990468 239.165311,119.422293 239.24948,119.842162 C239.33365,120.262031 239.644382,120.600279 240.055712,120.719787 C240.467043,120.839295 240.910724,120.720234 241.206897,120.41087 Z" id="Shape" fill="#FFFFFF"></path>
            <path d="M232.114943,128.511801 C232.114943,128.511801 233.91954,127.040994 236.563218,124.708385 C237.006993,124.282268 237.036375,123.582355 236.629874,123.120566 C236.223374,122.658777 235.52519,122.598923 235.045977,122.984783 C233.735632,124.133851 232.632184,125.076087 231.862069,125.731056 L230.965517,126.47795 L230.655172,126.742236 C230.163195,127.145215 230.091149,127.870597 230.494253,128.362422 C230.897357,128.854247 231.622965,128.926271 232.114943,128.523292 L232.114943,128.511801 Z" id="Shape" fill="#FFFFFF"></path>
            <path d="M96.9425287,182.655901 L92.8850575,182.655901 C92.2502474,182.655901 91.7356322,183.170356 91.7356322,183.804969 C91.7356322,184.439582 92.2502474,184.954037 92.8850575,184.954037 L96.9425287,184.954037 C97.5773388,184.954037 98.091954,184.439582 98.091954,183.804969 C98.091954,183.170356 97.5773388,182.655901 96.9425287,182.655901" id="Shape" fill="#662059"></path>
            <path d="M16.137931,182.655901 L1.1954023,182.655901 C0.560592242,182.655901 0.0459770115,183.170356 0.0459770115,183.804969 C0.0459770115,184.439582 0.560592242,184.954037 1.1954023,184.954037 L16.137931,184.954037 C16.7727411,184.954037 17.2873563,184.439582 17.2873563,183.804969 C17.2873563,183.170356 16.7727411,182.655901 16.137931,182.655901" id="Shape" fill="#662059"></path>
            <path d="M193.137931,182.655901 L191.37931,182.655901 C190.7445,182.655901 190.229885,183.170356 190.229885,183.804969 C190.229885,184.439582 190.7445,184.954037 191.37931,184.954037 L193.137931,184.954037 C193.772741,184.954037 194.287356,184.439582 194.287356,183.804969 C194.287356,183.170356 193.772741,182.655901 193.137931,182.655901" id="Shape" fill="#662059"></path>
            <path d="M298.321839,182.655901 L289.471264,182.655901 C288.836454,182.655901 288.321839,183.170356 288.321839,183.804969 C288.321839,184.439582 288.836454,184.954037 289.471264,184.954037 L298.321839,184.954037 C298.956649,184.954037 299.471264,184.439582 299.471264,183.804969 C299.471264,183.170356 298.956649,182.655901 298.321839,182.655901" id="Shape" fill="#662059"></path>
        </g>
    </g>
</svg>