<?xml version="1.0" standalone="no"?>
<!DOCTYPE svg PUBLIC "-//W3C//DTD SVG 20010904//EN"
 "http://www.w3.org/TR/2001/REC-SVG-20010904/DTD/svg10.dtd">
<svg version="1.0" xmlns="http://www.w3.org/2000/svg"
 width="1200.000000pt" height="1200.000000pt" viewBox="0 0 1200.000000 1200.000000"
 preserveAspectRatio="xMidYMid meet">
<metadata>
Created by potrace 1.14, written by Peter Selinger 2001-2017
</metadata>
<g transform="translate(0.000000,1200.000000) scale(0.100000,-0.100000)"
fill="#000000" stroke="none">
<path d="M1955 9384 c-97 -20 -102 -21 -189 -62 -81 -39 -97 -50 -178 -121
-36 -32 -127 -158 -132 -184 -2 -6 -8 -24 -14 -40 -7 -15 -14 -39 -17 -52 -3
-14 -8 -37 -11 -52 -11 -45 -7 -186 6 -250 7 -32 13 -62 14 -68 1 -5 4 -14 7
-20 4 -5 9 -23 13 -40 12 -50 76 -174 96 -185 14 -7 32 -5 69 10 l50 19 -4
-32 c-3 -29 -7 -51 -19 -114 -3 -11 -8 -43 -12 -70 -9 -55 -8 -49 -18 -90 -4
-19 -16 -35 -27 -38 -31 -10 -192 -173 -248 -252 -61 -84 -172 -296 -195 -373
-65 -207 -84 -275 -95 -350 -6 -36 -13 -74 -15 -85 -7 -38 -18 -120 -21 -170
-3 -27 -6 -75 -9 -105 -9 -96 -19 -341 -20 -472 -1 -71 -5 -128 -9 -128 -4 0
-3 -8 2 -19 6 -10 8 -21 4 -24 -3 -4 -6 -61 -7 -129 l-1 -122 -45 -11 c-59
-15 -89 -32 -125 -69 -50 -52 -64 -85 -69 -166 -7 -107 101 -236 204 -244 16
-1 32 -5 36 -9 7 -7 8 -308 1 -493 -3 -66 -2 -126 2 -133 4 -7 18 -13 30 -14
22 -1 23 -4 17 -77 -4 -41 -9 -84 -11 -95 -2 -11 -4 -25 -4 -32 -1 -7 -7 -10
-15 -7 -23 9 -54 -14 -60 -43 -3 -16 -8 -50 -11 -78 -3 -27 -7 -61 -10 -75 -2
-14 -6 -56 -10 -95 -3 -38 -8 -92 -11 -120 -13 -133 -31 -401 -49 -739 -3 -60
-8 -113 -11 -117 -2 -4 0 -10 6 -14 6 -4 7 -12 3 -18 -4 -7 -8 -32 -9 -57 -1
-25 -5 -139 -9 -255 -13 -369 -13 -354 4 -373 9 -10 24 -16 33 -14 16 3 17 -6
16 -82 l-2 -86 -27 0 c-36 0 -42 -18 -42 -129 0 -81 3 -96 19 -108 25 -19
2666 -18 2695 0 24 15 24 42 1 65 -15 15 -39 17 -220 16 -172 -1 -211 2 -200
19 1 1 -4 12 -10 24 -13 23 -130 474 -136 521 -2 15 -8 45 -14 67 -6 22 -13
54 -16 70 -2 17 -11 64 -20 105 -18 90 -22 112 -31 165 -11 72 -15 83 -29 97
-7 8 -17 34 -20 59 -12 83 -20 164 -17 189 9 85 3 229 -13 320 -4 24 -14 89
-21 140 -3 22 -8 57 -19 125 -2 11 -8 47 -14 80 -6 33 -13 74 -16 90 -3 17 -9
55 -15 85 -5 30 -12 71 -16 90 -3 19 -10 60 -16 90 -6 30 -12 66 -14 80 -2 14
-6 36 -9 50 -4 14 -8 39 -11 55 -2 17 -6 41 -9 55 -3 14 -11 51 -16 82 -15 79
-19 99 -26 128 -3 14 -7 36 -9 50 -4 24 -7 42 -21 108 -9 42 -13 64 -19 102
-4 19 -10 51 -15 70 -4 19 -8 42 -8 50 -1 8 -8 44 -17 80 -8 36 -17 76 -19 90
-4 26 -9 50 -27 135 -6 28 -12 62 -14 77 -2 15 -9 45 -15 68 -6 23 -13 55 -15
73 -3 18 -7 41 -10 52 -2 11 -9 39 -15 62 -5 24 -9 46 -8 50 0 5 -1 15 -4 23
-10 28 -27 105 -23 108 9 9 158 -297 209 -430 14 -36 26 -71 26 -77 0 -15 37
-33 63 -29 19 3 23 -5 40 -77 12 -52 15 -81 8 -83 -6 -2 -12 -2 -14 0 -9 8
-37 -33 -37 -54 0 -77 57 -215 135 -323 62 -87 258 -280 298 -294 7 -2 14 -7
17 -11 11 -15 156 -107 177 -112 12 -3 29 0 38 6 15 11 17 48 18 334 0 226 -3
325 -11 335 -6 7 -10 22 -8 33 2 11 7 62 11 114 4 58 13 103 23 118 9 13 17
41 18 61 1 20 3 36 4 36 1 0 3 14 5 30 1 17 3 30 4 30 2 0 4 16 6 35 5 46 43
177 95 324 23 65 50 152 61 194 10 41 20 76 22 77 1 1 42 10 90 19 83 16 181
45 272 81 22 9 48 18 58 22 9 3 17 10 17 15 0 5 4 7 9 4 9 -6 87 44 159 102
40 32 117 124 117 140 0 4 3 12 6 17 11 18 30 84 34 117 8 57 -13 68 -134 68
l-106 1 35 19 c110 59 191 189 206 327 3 34 0 45 -17 56 -11 8 -29 41 -41 73
-11 33 -25 64 -30 71 -5 6 -6 27 -3 47 6 32 3 39 -31 74 -22 21 -60 51 -86 68
-27 16 -48 32 -48 36 0 11 41 102 48 108 4 3 14 17 22 31 18 33 46 72 81 113
28 33 30 63 5 82 -10 7 -83 10 -211 10 -193 -1 -196 -1 -214 -24 -24 -32 -101
-29 -133 5 -31 34 -77 16 -78 -29 0 -16 9 -29 45 -72 36 -42 102 -159 115
-206 8 -28 6 -31 -36 -51 -24 -13 -44 -26 -44 -31 0 -4 -5 -8 -11 -8 -13 0
-64 -55 -95 -102 -71 -110 -82 -268 -26 -389 28 -64 96 -144 152 -182 24 -16
22 -16 -60 -11 -47 3 -92 5 -100 4 -34 -1 -107 2 -135 5 -137 14 -160 18 -255
40 -115 28 -270 85 -301 111 -8 8 -19 14 -24 14 -11 0 -140 87 -154 103 -14
18 -64 223 -86 355 -3 17 -8 47 -11 65 -9 44 -13 75 -19 124 -2 23 -6 46 -7
50 -1 4 1 29 5 54 4 25 10 65 13 89 3 24 8 49 12 54 10 17 11 285 2 341 -15
81 -20 108 -32 150 -7 22 -12 43 -14 48 -1 4 -3 9 -4 12 -1 3 -3 8 -5 13 -1 4
-5 16 -10 27 -4 11 -14 35 -21 53 l-14 33 43 19 c23 10 64 27 92 37 72 27 78
46 46 141 -14 42 -28 79 -32 82 -3 3 -12 22 -18 42 -13 39 -43 68 -71 68 -23
0 -90 120 -84 150 6 29 -8 47 -76 102 -47 37 -117 76 -154 85 -45 11 -204 9
-261 -3z"/>
<path d="M9825 9293 c-19 -21 -35 -42 -35 -46 0 -4 -5 -13 -10 -20 -40 -47
-54 -65 -68 -89 -9 -16 -20 -28 -24 -28 -4 0 -8 -5 -8 -11 0 -6 -7 -17 -16
-26 -14 -14 -23 -7 -102 71 -52 51 -95 86 -107 86 -12 0 -69 -24 -128 -54 -59
-30 -107 -53 -107 -50 0 2 -8 -3 -19 -12 -19 -17 -19 -25 -6 -219 3 -44 7
-102 8 -129 l2 -50 -55 -3 c-65 -4 -92 -27 -84 -71 3 -15 7 -43 9 -62 2 -19 6
-53 9 -75 6 -36 15 -108 18 -143 2 -19 53 -28 120 -22 33 3 61 3 63 0 2 -3 -5
-22 -15 -43 -10 -20 -16 -37 -13 -37 3 0 1 -6 -4 -12 -5 -7 -24 -50 -42 -95
l-33 -83 81 -161 82 -162 -56 -22 c-64 -27 -110 -59 -181 -131 -53 -53 -114
-135 -114 -153 0 -6 -4 -11 -8 -11 -24 0 -41 -87 -21 -107 17 -17 -35 -119
-64 -127 -17 -4 -29 -19 -40 -48 -22 -61 -67 -225 -83 -303 -15 -78 -40 -220
-49 -290 -6 -42 -16 -102 -20 -125 -3 -14 -7 -45 -10 -70 -3 -25 -7 -56 -10
-70 -3 -14 -8 -41 -11 -60 -3 -19 -10 -64 -15 -100 -6 -36 -12 -74 -14 -85 -1
-11 -5 -33 -8 -50 -3 -16 -13 -70 -21 -120 -9 -49 -18 -101 -21 -115 -3 -14
-10 -52 -16 -85 -15 -91 -17 -100 -19 -100 -1 0 -3 -11 -5 -25 -1 -14 -9 -54
-18 -90 -8 -36 -15 -72 -15 -80 -1 -12 -51 -229 -78 -332 -2 -10 -6 -27 -9
-39 -2 -11 -7 -30 -11 -42 -4 -12 -9 -29 -10 -37 -1 -8 -8 -35 -14 -60 -7 -25
-13 -49 -14 -55 -2 -5 -6 -17 -9 -25 -6 -16 -68 -229 -71 -245 -1 -5 -13 -41
-26 -80 -13 -38 -25 -72 -25 -75 -1 -3 -5 -13 -9 -22 -4 -9 -9 -22 -10 -30 -2
-7 -7 -24 -13 -38 -5 -14 -18 -50 -29 -80 -10 -30 -24 -66 -31 -79 -10 -20 -8
-30 14 -65 24 -39 159 -176 174 -176 4 0 14 -6 21 -13 14 -15 167 -91 183 -92
6 0 37 -7 70 -14 33 -8 99 -14 147 -13 l88 1 -5 -32 c-3 -18 -7 -63 -10 -102
-5 -61 -8 -88 -14 -116 0 -4 -10 -9 -20 -12 -21 -5 -28 -34 -37 -162 -3 -44
-7 -97 -9 -118 -2 -20 -7 -70 -10 -110 -3 -39 -8 -92 -10 -117 -3 -25 -7 -83
-11 -130 -3 -47 -7 -101 -9 -120 -2 -19 -6 -71 -10 -115 -4 -44 -8 -100 -10
-125 -2 -25 -4 -45 -5 -45 -1 0 -3 -25 -5 -55 -10 -160 -24 -300 -30 -310 -3
-4 -84 -7 -181 -6 -156 1 -178 -1 -195 -17 -24 -23 -24 -49 0 -64 16 -10 364
-12 1545 -12 1525 0 1526 1 1540 21 18 26 3 65 -28 70 -11 2 -152 3 -312 2
l-292 -1 -18 41 c-9 23 -30 70 -46 104 -15 35 -28 67 -28 72 0 4 -8 25 -17 46
-16 38 -18 44 -27 82 -3 9 -5 18 -6 20 -2 1 -4 7 -5 12 -1 6 -3 11 -5 13 -1 1
-3 9 -5 17 -2 8 -13 51 -24 95 -12 44 -24 98 -27 120 -3 22 -8 47 -11 55 -3 8
-7 31 -10 50 -6 52 -10 59 -38 70 -19 7 -25 17 -26 42 0 18 -3 42 -5 53 -2 11
-7 54 -10 97 -5 69 -4 77 13 80 19 3 21 43 25 748 2 187 -7 437 -17 490 -3 14
-7 57 -9 95 -5 77 -13 141 -22 195 -4 19 -8 44 -9 55 -8 57 -33 149 -55 205
l-20 52 28 36 c37 47 202 289 202 296 0 3 13 24 29 48 16 24 45 73 65 109 32
58 35 70 25 92 -10 21 -6 34 26 95 31 57 43 72 64 74 21 2 33 17 65 83 37 76
126 289 130 310 1 6 8 25 15 43 11 25 18 31 33 26 10 -3 60 -8 111 -10 51 -3
97 -6 102 -6 45 -4 207 24 260 44 109 41 146 63 226 137 86 78 125 178 71 183
-9 0 -21 2 -27 3 -5 2 -28 3 -50 4 l-40 1 -1 324 c0 268 -3 326 -15 338 -11
11 -45 14 -153 14 l-138 -1 -20 40 c-58 113 -192 160 -312 110 -55 -23 -114
-89 -125 -140 -2 -5 -7 -15 -11 -20 -5 -6 -8 -38 -6 -71 3 -86 31 -135 112
-203 13 -11 16 -370 3 -387 -13 -16 -223 -10 -324 10 -11 3 -20 5 -20 6 0 1
-14 3 -32 5 -30 4 -106 27 -148 44 -45 19 -120 57 -131 66 -7 6 -32 25 -56 44
-66 52 -161 184 -172 239 -4 25 -33 122 -76 262 -22 69 -39 129 -39 134 1 5
-3 12 -9 15 -11 7 -35 74 -24 69 70 -37 105 -48 133 -43 64 11 104 65 101 135
-10 222 -10 227 25 383 9 39 8 297 0 385 l-7 62 58 1 c31 1 61 1 66 0 18 -3
35 35 30 69 -2 19 -7 52 -9 74 -2 21 -7 46 -10 55 -3 10 -7 43 -10 74 -5 61
-20 108 -37 118 -6 4 -44 5 -85 2 l-75 -4 3 35 c2 19 0 38 -3 41 -4 4 -3 18 2
31 5 13 5 26 1 29 -5 3 -7 14 -4 25 8 31 -5 68 -26 75 -16 5 -19 14 -18 52 1
37 6 47 25 56 36 17 26 67 -19 89 -62 32 -247 118 -254 118 -3 0 -22 -17 -40
-37z"/>
<path d="M5745 9197 c-110 -56 -202 -104 -205 -107 -3 -3 -40 -23 -82 -44 -42
-21 -79 -45 -81 -54 -4 -21 13 -62 26 -62 8 0 3 -67 -9 -122 -2 -10 -6 -28 -9
-39 -2 -12 -6 -22 -7 -23 -27 -11 -44 -27 -46 -45 -5 -31 15 -51 49 -51 34 0
35 -5 9 -47 -11 -18 -16 -33 -12 -33 4 0 2 -4 -4 -8 -5 -4 -20 -36 -31 -72
-64 -198 -53 -361 36 -538 17 -34 27 -62 21 -62 -15 0 -16 0 -72 -21 -29 -11
-59 -21 -66 -23 -7 -1 -18 -8 -24 -14 -7 -7 -17 -12 -24 -12 -18 0 -36 -27
-36 -53 0 -15 -11 -31 -29 -43 -16 -10 -43 -38 -61 -61 -28 -38 -44 -48 -69
-45 -23 3 -53 -77 -74 -193 -2 -16 -7 -41 -10 -55 -7 -35 -26 -141 -30 -165
-2 -11 -7 -40 -11 -65 -4 -25 -8 -57 -9 -72 0 -16 -2 -28 -5 -28 -3 0 -7 -15
-8 -33 -1 -18 -5 -44 -7 -57 -8 -38 -13 -70 -19 -120 -3 -25 -8 -54 -10 -65
-5 -27 -17 -112 -22 -154 -2 -19 -6 -50 -10 -70 -8 -46 -13 -85 -18 -141 -3
-25 -5 -45 -6 -45 -4 0 -19 -108 -25 -175 -3 -30 -7 -61 -9 -70 -3 -8 -8 -40
-11 -70 -7 -69 -14 -120 -19 -147 -3 -12 -7 -48 -11 -80 -3 -32 -8 -71 -11
-87 -2 -15 -7 -49 -9 -75 -3 -25 -6 -55 -9 -66 -3 -18 -14 -102 -21 -165 -1
-14 -5 -47 -9 -75 -4 -27 -8 -63 -10 -80 -2 -16 -7 -48 -10 -70 -3 -22 -8 -65
-12 -95 -3 -30 -7 -64 -9 -75 -1 -11 -6 -49 -10 -85 -4 -36 -9 -73 -10 -82 -7
-35 -19 -154 -20 -185 0 -18 -3 -33 -7 -33 -4 0 -2 -11 4 -25 6 -14 17 -25 25
-25 10 0 12 -11 8 -42 -3 -24 -6 -56 -7 -71 -2 -19 -9 -29 -25 -33 -28 -7 -36
-36 -49 -164 -12 -116 -10 -154 11 -175 11 -12 43 -47 70 -79 28 -33 57 -66
65 -75 58 -60 127 -148 124 -161 -8 -44 -27 -169 -39 -265 -2 -16 -7 -61 -11
-100 -4 -38 -11 -73 -16 -76 -6 -4 -6 -9 1 -13 6 -4 9 -10 7 -14 -2 -4 -7 -36
-10 -70 -7 -74 4 -102 40 -102 14 0 23 -4 19 -9 -3 -5 -6 -39 -6 -75 -1 -63
-8 -75 -35 -63 -14 6 -27 -41 -29 -107 -7 -173 -39 -452 -60 -526 -2 -8 -7
-37 -11 -65 -3 -27 -8 -53 -10 -56 -2 -3 -6 -21 -9 -40 -3 -19 -8 -47 -12 -64
-4 -16 -7 -34 -7 -40 -1 -6 -40 -10 -94 -11 -70 -1 -97 -5 -109 -17 -21 -21
-10 -63 19 -70 13 -3 706 -5 1540 -5 1112 0 1520 3 1527 12 17 21 17 51 0 66
-13 12 -51 15 -212 14 l-195 -1 -7 34 c-3 18 -5 34 -5 35 1 2 -4 16 -10 32
-10 26 -41 158 -54 231 -3 17 -13 62 -21 100 -9 39 -19 81 -21 95 -3 14 -12
63 -20 110 -9 47 -17 92 -19 100 -14 74 -38 222 -40 251 -2 20 -5 45 -8 55 -5
16 -11 61 -22 174 -1 14 -5 48 -8 75 -6 46 -14 149 -22 270 -2 27 -5 235 -7
461 -3 407 -8 474 -37 474 -6 0 -10 8 -9 18 0 31 -14 177 -18 181 -2 2 3 12
12 22 20 23 13 101 -21 234 -8 33 -17 67 -19 76 -3 9 -19 52 -36 95 -21 54
-30 88 -26 109 3 16 9 50 12 75 13 99 77 343 110 417 8 17 14 35 14 40 0 12
103 216 118 231 6 7 12 17 12 22 0 5 6 15 13 22 6 7 25 30 40 51 33 44 147
157 159 157 10 0 88 106 88 120 0 5 4 10 8 10 5 0 14 10 20 23 10 20 11 20 12
-13 1 -19 3 -44 6 -55 2 -11 5 -30 6 -42 1 -13 5 -23 9 -23 3 0 4 -11 2 -23
-6 -29 20 -57 52 -57 40 0 47 26 31 120 -3 19 -8 49 -11 65 -17 103 -19 95 12
86 63 -19 189 -63 205 -72 35 -18 66 -9 107 31 23 23 41 45 41 49 0 5 7 14 15
21 8 7 25 44 36 82 40 130 7 271 -86 370 -36 39 -43 40 -115 24 -90 -20 -153
-32 -215 -41 -22 -3 -51 -8 -65 -10 -132 -23 -344 -34 -359 -20 -3 4 -6 19 -7
33 -4 107 -55 189 -144 229 -46 21 -134 24 -182 7 -48 -17 -105 -60 -113 -85
-4 -10 -14 -19 -22 -19 -17 0 -105 62 -158 112 l-29 27 -1 258 c-1 274 -1 270
55 398 33 78 81 206 82 222 1 19 -7 61 -17 92 -3 11 -8 35 -10 53 -2 18 -6 44
-10 58 -3 14 -8 41 -11 62 l-6 36 39 -4 c21 -3 44 -1 51 4 14 9 27 88 27 159
0 24 2 43 5 43 3 0 6 33 8 74 l2 73 -121 114 c-123 116 -154 138 -173 119 -17
-17 -46 18 -40 49 4 23 -7 37 -85 110 -49 47 -98 86 -108 87 -10 1 -108 -43
-218 -99z"/>
<path d="M7331 6161 c-16 -10 -17 -37 -2 -115 6 -33 9 -61 7 -63 -2 -2 -41 -6
-87 -10 -46 -3 -93 -7 -104 -8 -11 -1 -27 -3 -36 -4 -16 -1 -33 -35 -29 -56 1
-5 3 -37 5 -70 7 -103 14 -210 30 -430 9 -108 13 -147 19 -153 13 -12 190 -3
224 11 12 6 22 16 22 24 0 7 1 13 3 13 87 13 116 11 136 -9 19 -19 30 -21 89
-16 219 15 216 14 207 115 -3 36 -8 101 -11 145 -3 44 -7 100 -8 125 -2 25 -7
86 -11 135 -4 50 -8 112 -10 138 -2 26 -9 55 -16 63 -13 16 -9 16 -246 -2 -46
-3 -83 -3 -83 1 0 30 -24 153 -32 163 -12 14 -47 16 -67 3z"/>
<path d="M45 2091 c-10 -2 -25 -10 -34 -18 -13 -14 -13 -18 0 -42 l15 -26 317
-1 c337 -2 347 -1 347 45 0 43 -17 45 -329 46 -164 0 -306 -2 -316 -4z"/>
<path d="M3684 2079 c-19 -21 -18 -43 4 -61 12 -11 44 -16 112 -17 87 -2 95 0
111 20 13 18 15 28 6 46 -5 13 -17 23 -26 24 -130 6 -194 3 -207 -12z"/>
<path d="M7637 2085 c-24 -11 -32 -42 -18 -64 15 -22 113 -27 134 -6 18 18 22
42 9 62 -10 16 -97 22 -125 8z"/>
<path d="M11560 2088 c-30 -11 -36 -49 -12 -69 18 -14 48 -16 215 -16 192 0
195 0 207 22 13 25 0 64 -23 66 -57 5 -372 2 -387 -3z"/>
</g>
</svg>
